<svg width="420" height="120" viewBox="0 0 420 120" fill="none" xmlns="http://www.w3.org/2000/svg">
  <defs>
    <linearGradient id="unicornBody" x1="48" y1="18" x2="118" y2="96" gradientUnits="userSpaceOnUse">
      <stop offset="0" stop-color="#4460FF"/>
      <stop offset="1" stop-color="#3150EE"/>
    </linearGradient>
    <linearGradient id="unicornAccent" x1="86" y1="40" x2="118" y2="84" gradientUnits="userSpaceOnUse">
      <stop offset="0" stop-color="#5F7BFF"/>
      <stop offset="1" stop-color="#3E5AF6"/>
    </linearGradient>
  </defs>
  <rect width="420" height="120" fill="none"/>
  <g transform="translate(20,18)">
    <path d="M32 49C32 39.0589 40.0589 31 50 31H61.5C75.5833 31 86.9999 42.4166 86.9999 56.4999C86.9999 59.3259 86.4345 62.1259 85.3346 64.732L83.0183 70.1598C80.7042 75.5703 79.607 81.3848 79.7346 87.2296L79.9014 95.0529C79.9655 97.8919 77.7502 100.285 74.9112 100.349L54.8893 100.765C52.1975 100.822 49.9349 98.6488 49.7588 95.9594L49.2571 88.4531C49.1186 86.339 47.3551 84.6938 45.2389 84.6327C40.2083 84.4891 36 80.2054 36 75.1731V61.5L32 49Z" fill="url(#unicornBody)"/>
    <path d="M94.7499 28C94.7499 28 86.5441 27.02 83.4999 37.5C82.4485 40.9758 78.9974 43.4001 75.4018 43.2259L64 42.6829C60.9935 42.54 58.5 45.0519 58.5 48.0621V52.5C58.5 55.2542 59.662 57.896 61.7104 59.8334L66.6562 64.4944C68.9323 66.6575 69.0054 70.2398 66.8442 72.5176C64.5407 74.9539 60.6266 74.7465 58.586 72.0463L52.875 64.6484C50.7951 61.9005 46.3322 62.0166 44.4374 64.8789C43.0272 66.9654 42.3 69.4437 42.3 72.0037V77.5C42.3 82.5751 46.4249 86.7 51.5 86.7H61.5C64.8492 86.7 67.5632 89.414 67.5632 92.7632V94C67.5632 96.2105 69.356 98.0033 71.5665 98.0033C78.6899 98.0033 87.125 96.95 92.375 92.8C97.625 88.65 101.375 80.9 101.375 74.5C101.375 68.1 98.7499 62.0501 102.875 53.9C108.308 42.8687 94.7499 28 94.7499 28Z" fill="url(#unicornAccent)"/>
    <circle cx="77.5" cy="52" r="4.5" fill="white"/>
    <path d="M38 36C36.3431 36 35 37.3431 35 39C35 54.8792 40.1901 63 56.5 63" stroke="white" stroke-width="4" stroke-linecap="round"/>
    <path d="M91 36L108 27" stroke="#4460FF" stroke-width="5" stroke-linecap="round"/>
  </g>
  <g transform="translate(150,42)">
    <path d="M0 0H30.8C39.4 0 44 4.6 44 13.2V15.8C44 24.4 39.4 29 30.8 29H12.8V45H0V0ZM26.8 19C30.8 19 32.8 17 32.8 13.2V11.8C32.8 8 30.8 6 26.8 6H12.8V19H26.8Z" fill="#0E1D4A"/>
    <path d="M53 0H65.8L78 45H66L63.4 36H55.4L52.8 45H41L53 0ZM62.8 26L59.4 14.6H59.2L55.8 26H62.8Z" fill="#0E1D4A"/>
    <path d="M88 0H118.4V10.8H100V17H116.8V27.8H100V34.2H118.4V45H88V0Z" fill="#0E1D4A"/>
    <path d="M128 0H140.8L153 45H141L138.4 36H130.4L127.8 45H116L128 0ZM137.8 26L134.4 14.6H134.2L130.8 26H137.8Z" fill="#0E1D4A"/>
    <path d="M163 0H175.8L188 25.2H188.2V0H200V45H188.8L176 19.6H175.8V45H163V0Z" fill="#0E1D4A"/>
    <path d="M210 0H241V11.4H223V16.4H239.8V27.8H223V33.6H241V45H210V0Z" fill="#0E1D4A"/>
    <path d="M250 0H284V11H273.8V45H260.8V11H250V0Z" fill="#0E1D4A"/>
  </g>
</svg>

