<svg width="64" height="64" viewBox="0 0 64 64" fill="none" xmlns="http://www.w3.org/2000/svg">
  <defs>
    <linearGradient id="fundslyGradient" x1="10" y1="8" x2="54" y2="56" gradientUnits="userSpaceOnUse">
      <stop offset="0" stop-color="#4D73FF"/>
      <stop offset="1" stop-color="#6D5BFF"/>
    </linearGradient>
    <linearGradient id="fundslyAccent" x1="28" y1="18" x2="44" y2="44" gradientUnits="userSpaceOnUse">
      <stop offset="0" stop-color="#7F8CFF"/>
      <stop offset="1" stop-color="#4D73FF"/>
    </linearGradient>
  </defs>
  <path d="M18 23.5C18 18.8056 21.8056 15 26.5 15H33.75C40.2904 15 45.5897 20.2993 45.5897 26.8397C45.5897 28.3227 45.2958 29.7903 44.7266 31.1647L43.4285 34.3264C42.1316 37.4427 41.4831 40.8356 41.5485 44.2556L41.6385 48.9941C41.674 50.8942 40.1354 52.4655 38.2353 52.5011L27.5924 52.6955C25.7656 52.7287 24.2324 51.2735 24.1031 49.4507L23.8434 45.8022C23.7669 44.7005 22.8654 43.8276 21.7612 43.7963C19.1326 43.7221 17 41.542 17 38.9123V30.5L18 23.5Z" fill="url(#fundslyGradient)"/>
  <path d="M49.25 14C49.25 14 44.7109 13.4375 43.125 18.875C42.5747 20.7661 40.7682 22.0312 38.7937 21.9375L33 21.6562C31.3431 21.5755 30 22.8998 30 24.558V26.875C30 28.2247 30.5469 29.5169 31.5156 30.4547L33.8125 32.6719C35.0238 33.841 35.0625 35.7784 33.8906 36.9922V36.9922C32.6443 38.282 30.5312 38.168 29.4531 36.7313L26.75 33.0937C25.6406 31.6133 23.4687 31.6679 22.4375 33.1992C21.7109 34.2914 21.375 35.603 21.375 36.9375V40.2188C21.375 42.5811 23.2876 44.4937 25.65 44.4937H30.75C32.3853 44.4937 33.75 45.8584 33.75 47.4937V48.2188C33.75 49.3363 34.6599 50.2188 35.7774 50.2188C39.184 50.2188 43.25 49.6875 45.9375 47.5313C48.625 45.375 50.6875 41.0625 50.6875 37.375C50.6875 33.6875 49.4375 30.1875 51.3125 26.25C54.0266 20.4844 49.25 14 49.25 14Z" fill="url(#fundslyAccent)"/>
  <circle cx="36.5" cy="26.5" r="2.5" fill="white"/>
  <path d="M20.5 19C19.6716 19 19 19.6716 19 20.5C19 28.5081 21.7562 32.6875 29.5 32.6875" stroke="white" stroke-width="2.5" stroke-linecap="round"/>
  <path d="M46 20L55 15" stroke="#4D73FF" stroke-width="3" stroke-linecap="round"/>
</svg>

